<?xml version="1.0" standalone="no"?>
<!DOCTYPE svg PUBLIC "-//W3C//DTD SVG 20010904//EN"
 "http://www.w3.org/TR/2001/REC-SVG-20010904/DTD/svg10.dtd">
<svg version="1.0" xmlns="http://www.w3.org/2000/svg"
 width="96.000000pt" height="96.000000pt" viewBox="0 0 96.000000 96.000000"
 preserveAspectRatio="xMidYMid meet">
<metadata>
Created by potrace 1.14, written by Peter Selinger 2001-2017
</metadata>
<g transform="translate(0.000000,96.000000) scale(0.100000,-0.100000)"
fill="#000000" stroke="none">
<path d="M134 937 c-51 -20 -88 -53 -111 -98 -22 -43 -23 -50 -20 -374 2 -323
3 -331 24 -366 13 -20 42 -49 65 -65 l41 -29 336 -2 c322 -2 338 -1 379 19 26
13 55 38 75 67 l32 46 3 315 c3 351 0 382 -55 436 -62 63 -72 64 -422 63 -216
0 -326 -4 -347 -12z"/>
</g>
</svg>
